<svg width="156" height="189" fill="none" xmlns="http://www.w3.org/2000/svg"><g clip-path="url(#a)"><path d="M141.3 84.1a14.8 14.8 0 1 0 0-29.5 14.8 14.8 0 0 0 0 29.5ZM89.1 140l-7 18-22.9 14.8A7.2 7.2 0 1 0 67 185l25.4-16c3.5-2 4-5 4-5l5-16-5.8-2.7c-5.7-2.6-6.5-5.3-6.5-5.3Z" fill="#fff"/><path d="M139.3 142s-1.1-3.9-4.6-5.2a791 791 0 0 1-18-7.8l15.4-25.5s3.8-9-.4-13.5c-4.1-4.4-13.7-9.7-13.7-9.7h-7.5l15.8-26.8A12 12 0 0 0 122 37L72.6 7.9a12 12 0 0 0-16.4 4.3L9.2 92a12 12 0 0 0 4.2 16.5l49.4 29a12 12 0 0 0 16.4-4.2l23-38.9h8l-14.7 26.2s-5.1 9.2-.3 14.3c4.2 4.4 12.6 6.9 12.6 6.9l17.3 6.5 5 31.3a7.2 7.2 0 0 0 14.3-1.7l-5-36ZM18 100.7a3 3 0 0 1-1.1-4.1l47-79.8a3 3 0 0 1 4.2-1.1l11.5 6.8-50.1 85-11.5-6.8Zm53.5 28a3 3 0 0 1-4.2 1.1l-30-17.7 50-85 30.2 17.7a3 3 0 0 1 1 4.1L100 80.3h-8.8L71.3 94.7l-1.2 1a7.1 7.1 0 0 0 9 11l.5-.4 9.7-7.8-17.8 30.3Z" fill="#fff"/><path d="m49.2 6.4-47 79.9a12 12 0 0 0 4.2 16.4l49.4 29.1a12 12 0 0 0 16.4-4.2l47-79.9a12 12 0 0 0-4.2-16.4L65.6 2.2a12 12 0 0 0-16.4 4.2ZM10 90.8 57 11a3 3 0 0 1 4.2-1l11.5 6.7-50.1 85L11 95a3 3 0 0 1-1-4.2Zm101.6-47.6-47 79.8a3 3 0 0 1-4.1 1l-30.2-17.7 50.2-85 30 17.8a3 3 0 0 1 1.1 4Z" fill="#F0C42E"/><path d="M135.3 78.3a14.8 14.8 0 1 0 0-29.5 14.8 14.8 0 0 0 0 29.5Zm-53.4 56L74.8 152 52 167a7.2 7.2 0 1 0 7.6 12l25.5-15.9c3.5-2 4.2-5 4.2-5l4.8-16-5.7-2.7c-5.8-2.6-6.5-5.3-6.5-5.3Zm50.1 1.9s-1-3.9-4.5-5.2c-3.4-1.3-18-7.7-18-7.7l15.3-25.6s3.9-9-.3-13.5a74.7 74.7 0 0 0-13.8-9.7H84L64 88.9 63 90a7.1 7.1 0 0 0 4.7 12.4c1.6 0 3-.5 4.2-1.3l.6-.5 14.5-12h16l-14.8 26.2s-5 9.2-.3 14.3a34.5 34.5 0 0 0 12.7 6.9l17.2 6.5 5.1 31.3a7.2 7.2 0 0 0 14.2-1.7l-5-36Z" fill="#3A3A3A"/></g><defs><clipPath id="a"><path fill="#fff" transform="translate(0 .5)" d="M0 0h156v188H0z"/></clipPath></defs></svg>